# This file uses centimeters as units for non-parametric coordinates.

mtllib mods_smallRock.mtl
g default
v -0.009340 -0.074568 -2.205064
v -0.009340 -0.074568 -1.004857
v -0.009039 0.386519 -1.603608
v -0.700370 -0.077727 -1.603039
v -0.009039 -0.504020 -1.603608
v 0.700370 -0.077727 -1.603039
v -0.409722 -0.407586 -1.316210
v -0.415830 -0.302279 -1.202234
v -0.508770 -0.299468 -1.313066
v -0.009128 -0.351427 -1.151228
v -0.009039 -0.444575 -1.265881
v -0.414800 0.183840 -1.204148
v -0.409228 0.290219 -1.316648
v -0.507989 0.181907 -1.314856
v -0.009038 0.327199 -1.266589
v -0.009122 0.232326 -1.153369
v -0.409209 0.290125 -1.893240
v -0.414784 0.183824 -2.005780
v -0.507986 0.181829 -1.895079
v -0.009122 0.232301 -2.056561
v -0.009039 0.327112 -1.943289
v -0.415814 -0.302264 -2.007694
v -0.409703 -0.407492 -1.893678
v -0.508767 -0.299392 -1.896870
v -0.009128 -0.351404 -2.058703
v -0.009039 -0.444488 -1.943999
v -0.546463 -0.075240 -1.240676
v -0.440877 -0.074747 -1.135950
v 0.508785 -0.299319 -1.313204
v 0.415692 -0.301905 -1.202552
v 0.409592 -0.407302 -1.316610
v 0.440552 -0.074742 -1.136536
v 0.546509 -0.075242 -1.240866
v -0.413305 0.340286 -1.603748
v -0.528027 0.245868 -1.603659
v 0.414662 0.183464 -1.204470
v 0.508003 0.181758 -1.314997
v 0.409096 0.289934 -1.317051
v 0.413157 0.339949 -1.603749
v 0.528062 0.245761 -1.603659
v -0.440831 -0.074747 -2.073982
v -0.546323 -0.075236 -1.969157
v 0.507999 0.181680 -1.894938
v 0.414646 0.183449 -2.005457
v 0.409077 0.289840 -1.892837
v 0.546369 -0.075237 -1.968966
v 0.440504 -0.074742 -2.073395
v -0.530293 -0.365084 -1.603649
v -0.414147 -0.457690 -1.603748
v 0.415676 -0.301890 -2.007375
v 0.508781 -0.299243 -1.896732
v 0.409573 -0.407209 -1.893278
v 0.414004 -0.457356 -1.603749
v 0.530329 -0.364982 -1.603649
vt 0.397766 0.972761
vt 0.375000 0.974180
vt 0.375000 0.880634
vt 0.404428 0.000000
vt 0.494348 0.000000
vt 0.395257 0.030545
vt 0.502311 1.000000
vt 0.602416 0.972626
vt 0.598496 1.000000
vt 0.395335 0.219804
vt 0.397890 0.277388
vt 0.375000 0.369223
vt 0.375000 0.473680
vt 0.375000 0.379864
vt 0.397894 0.472622
vt 0.395339 0.530201
vt 0.375000 0.625138
vt 0.375000 0.716558
vt 0.375000 0.634861
vt 0.395261 0.719449
vt 0.157978 0.000000
vt 0.249261 0.000000
vt 0.657932 0.000000
vt 0.748395 0.000000
vt 0.650475 0.031927
vt 0.604717 0.219637
vt 0.650369 0.219248
vt 0.748458 0.250000
vt 0.625000 0.379912
vt 0.625000 0.474018
vt 0.602288 0.472485
vt 0.625000 0.533697
vt 0.625000 0.625067
vt 0.625000 0.634944
vt 0.604792 0.719276
vt 0.625000 0.775565
vt 0.625000 0.870237
vt 0.498772 0.025709
vt 0.498333 0.274887
vt 0.394616 0.629186
vt 0.396655 0.875400
vt 0.749839 0.025959
vt 0.349570 0.031871
vt 0.351804 0.120779
vt 0.349676 0.219303
vt 0.250194 0.224045
vt 0.498754 0.525997
vt 0.648248 0.120779
vt 0.394605 0.120814
vt 0.602293 0.277524
vt 0.603303 0.374600
vt 0.604713 0.530368
vt 0.605445 0.629193
vt 0.498772 0.724283
vt 0.498333 0.629501
vt 0.498333 0.975323
vt 0.604796 0.030718
vt 0.605456 0.120807
vt 0.498754 0.224011
vt 0.498333 0.120499
vt 0.498333 0.475100
vt 0.396866 0.374600
vt 0.498333 0.374600
vt 0.148183 0.120775
vt 0.150304 0.219261
vt 0.150410 0.031911
vt 0.250161 0.025927
vt 0.250400 0.120499
vt 0.498333 0.774690
vt 0.603513 0.875400
vt 0.498333 0.875400
vt 0.602412 0.777365
vt 0.849544 0.031968
vt 0.851766 0.120776
vt 0.749807 0.224012
vt 0.749600 0.120499
vt 0.849650 0.219206
vt 0.375000 0.276233
vt 0.375000 0.534137
vt 0.397770 0.777229
vt 0.657321 0.250000
vt 0.625000 0.716963
vn -0.418866 -0.776157 0.471307
vn -0.823094 -0.460089 0.332917
vn -0.840704 -0.541494 -0.000396
vn -0.680674 -0.732587 -0.000269
vn -0.304199 -0.490673 0.816519
vn 0.000615 -0.757274 0.653097
vn 0.000724 -0.540312 0.841464
vn -0.704210 -0.295913 0.645387
vn -0.836533 -0.370222 0.403917
vn 0.409249 -0.777726 0.477135
vn 0.294736 -0.492218 0.819055
vn -0.310163 0.458063 0.833053
vn -0.840327 0.425909 0.335339
vn -0.851623 0.337174 0.401314
vn -0.709436 0.268670 0.651550
vn -0.422533 0.770285 0.477626
vn 0.000745 0.508807 0.860880
vn 0.000624 0.748338 0.663318
vn -0.687811 0.725890 -0.000259
vn -0.862046 0.506829 -0.000391
vn 0.300582 0.459603 0.835713
vn 0.412810 0.771824 0.483608
vn -0.423701 0.770696 -0.475925
vn -0.841304 0.425689 -0.333161
vn -0.310228 0.458168 -0.832971
vn 0.000624 0.748704 -0.662904
vn 0.000745 0.508958 -0.860791
vn -0.709808 0.268337 -0.651281
vn -0.852866 0.336776 -0.399000
vn 0.413986 0.772246 -0.481924
vn 0.300644 0.459710 -0.835631
vn -0.304264 -0.490784 -0.816428
vn -0.824103 -0.459846 -0.330749
vn -0.837829 -0.369798 -0.401611
vn -0.704606 -0.295540 -0.645125
vn -0.420024 -0.776556 -0.469618
vn 0.000725 -0.540472 -0.841362
vn 0.000615 -0.757634 -0.652679
vn 0.294799 -0.492332 -0.818965
vn 0.410414 -0.778136 -0.475463
vn 0.822624 -0.460521 0.333484
vn 0.679334 -0.733830 -0.000271
vn 0.840285 -0.542145 -0.000396
vn 0.836080 -0.370425 0.404667
vn 0.702336 -0.295915 0.647424
vn 0.707573 0.268661 0.653576
vn 0.851202 0.337352 0.402055
vn 0.839897 0.426306 0.335912
vn 0.861688 0.507438 -0.000392
vn 0.686485 0.727144 -0.000260
vn 0.840878 0.426086 -0.333730
vn 0.852451 0.336954 -0.399736
vn 0.707946 0.268327 -0.653309
vn 0.702734 -0.295540 -0.647164
vn 0.837382 -0.370001 -0.402356
vn 0.823637 -0.460277 -0.331312
vn 0.000819 -0.397559 0.917576
vn -0.217231 -0.388431 0.895507
vn -0.111983 0.978666 0.172259
vn 0.000556 0.984860 0.173349
vn 0.000429 1.000000 -0.000105
vn -0.113622 0.993524 -0.000183
vn -0.217235 -0.388436 -0.895504
vn 0.000820 -0.397565 -0.917574
vn -0.113622 -0.993524 -0.000183
vn 0.000426 -1.000000 -0.000104
vn 0.000554 -0.984860 0.173349
vn -0.111983 -0.978666 0.172259
vn 0.875863 -0.395355 0.276691
vn -0.875962 -0.395222 0.276569
vn -0.892662 0.359130 0.272360
vn 0.000794 0.366542 -0.930401
vn -0.218040 0.358073 -0.907878
vn 0.892580 0.359246 0.272478
vn -0.218036 0.358068 0.907881
vn 0.000794 0.366537 0.930403
vn 0.108057 0.979094 0.172334
vn 0.109640 0.993971 -0.000182
vn 0.210415 0.358001 -0.909704
vn 0.209653 -0.388380 -0.897333
vn 0.109640 -0.993971 -0.000182
vn 0.108057 -0.979094 0.172334
vn 0.209648 -0.388375 0.897337
vn 0.210411 0.357997 0.909706
vn 0.107963 0.979291 -0.171269
vn 0.000556 0.985049 -0.172275
vn -0.111886 0.978864 -0.171193
vn -0.893625 0.358408 -0.270143
vn -0.877018 -0.394441 -0.274328
vn -0.111886 -0.978864 -0.171194
vn 0.000554 -0.985049 -0.172275
vn 0.107963 -0.979291 -0.171269
vn 0.876921 -0.394574 -0.274448
vn 0.893544 0.358523 -0.270259
s 1
g pCube2
usemtl initialShadingGroup
f 7/1/1 9/2/2 48/3/3 49/41/4
f 8/6/5 7/4/1 11/5/6 10/38/7
f 9/43/2 8/6/5 28/49/8 27/44/9
f 10/7/7 11/56/6 31/8/10 30/9/11
s 2
f 12/10/12 14/45/13 27/44/14 28/49/15
f 13/11/16 12/10/12 16/59/17 15/39/18
f 14/78/13 13/11/16 34/62/19 35/12/20
f 15/39/18 16/59/17 36/26/21 38/50/22
f 17/15/23 19/13/24 35/14/20 34/62/19
f 18/16/25 17/15/23 21/61/26 20/47/27
f 19/79/24 18/16/25 41/40/28 42/17/29
f 20/47/27 21/61/26 45/31/30 44/52/31
s 1
f 22/20/32 24/18/33 42/19/34 41/40/35
f 23/80/36 22/20/32 25/54/37 26/69/38
f 24/66/33 23/21/36 49/22/4 48/67/3
f 26/69/38 25/54/37 50/35/39 52/72/40
f 29/25/41 31/23/10 53/24/42 54/42/43
f 30/57/11 29/25/41 33/48/44 32/58/45
s 2
f 32/58/46 33/48/47 37/27/48 36/26/21
f 38/81/22 37/27/48 40/75/49 39/28/50
f 39/51/50 40/29/49 43/30/51 45/31/30
f 44/52/31 43/32/51 46/33/52 47/53/53
s 1
f 47/53/54 46/34/55 51/82/56 50/35/39
f 52/72/40 51/36/56 54/37/43 53/70/42
f 8/6/5 10/38/7 2/60/57 28/49/58
s 6
f 13/11/59 15/39/60 3/63/61 34/62/62
s 1
f 41/40/63 1/55/64 25/54/37 22/20/32
s 7
f 49/41/65 5/71/66 11/56/67 7/1/68
s 1
f 29/25/41 54/42/43 6/76/69 33/48/44
f 48/67/3 9/43/2 27/44/9 4/68/70
s 2
f 4/68/71 27/44/14 14/45/13 35/46/20
f 18/16/25 20/47/27 1/55/72 41/40/73
f 33/48/47 6/76/74 40/75/49 37/27/48
f 28/49/75 2/60/76 16/59/17 12/10/12
s 6
f 15/39/60 38/50/77 39/51/78 3/63/61
s 2
f 1/55/72 20/47/27 44/52/31 47/53/79
s 1
f 25/54/37 1/55/64 47/53/80 50/35/39
s 7
f 11/56/67 5/71/66 53/70/81 31/8/82
s 1
f 2/60/57 10/38/7 30/57/11 32/58/83
s 2
f 16/59/17 2/60/76 32/58/84 36/26/21
s 6
f 3/63/61 39/51/78 45/31/85 21/61/86
f 34/62/62 3/63/61 21/61/86 17/15/87
s 2
f 42/64/29 4/68/88 35/46/20 19/65/24
s 1
f 24/66/33 48/67/3 4/68/89 42/64/34
s 7
f 23/80/90 26/69/91 5/71/66 49/41/65
f 53/70/81 5/71/66 26/69/91 52/72/92
s 1
f 6/76/93 54/42/43 51/73/56 46/74/55
s 2
f 40/75/49 6/76/94 46/74/52 43/77/51
s 1
f 7/4/1 8/6/5 9/43/2
s 2
f 12/10/12 13/11/16 14/78/13
f 17/15/23 18/16/25 19/79/24
s 1
f 22/20/32 23/80/36 24/18/33
f 29/25/41 30/57/11 31/23/10
s 2
f 36/26/21 37/27/48 38/81/22
f 43/32/51 44/52/31 45/31/30
s 1
f 50/35/39 51/82/56 52/72/40
