# This file uses centimeters as units for non-parametric coordinates.

mtllib mods_smallRock.mtl
g default
v -0.499447 -0.529616 0.552586
v 0.499447 -0.714973 0.553820
v -0.367572 0.494530 -0.017380
v 0.367572 0.464306 0.004033
v -0.367572 0.476255 -0.418761
v 0.367572 0.476704 -0.421210
v -0.499447 -0.553753 -0.839200
v 0.499447 -0.577654 -0.839078
v 0.617690 -0.302523 0.558664
v -0.617690 0.080675 0.542453
v -0.617690 -0.151603 -0.861568
v 0.617690 -0.185857 -0.862535
v 0.579382 0.226054 0.331886
v -0.579382 0.385361 0.258923
v -0.579382 0.286076 -0.585248
v 0.579382 0.281944 -0.593446
v -0.518501 0.506786 -0.209705
v -0.876537 0.376527 -0.110021
v -1.015518 0.012690 -0.109061
v -0.820791 -0.592839 -0.097541
v 0.820791 -0.718468 -0.097005
v 1.015518 -0.284513 -0.103067
v 0.876537 0.238522 -0.092802
v 0.518501 0.491154 -0.206924
v 0.625932 -0.588963 0.613696
v 0.000000 -0.107578 0.641523
v 0.000000 0.497460 -0.024276
v -0.494585 0.508933 -0.107384
v 0.494585 0.488314 -0.097378
v 0.000000 0.521321 -0.226836
v 0.000000 -0.173642 -0.972888
v -0.625932 -0.406030 -0.922215
v 0.625932 -0.431112 -0.921941
v 0.000000 -0.609719 -0.939919
v 0.000000 -0.732721 -0.095104
v -0.739381 -0.586758 0.333368
v 0.739381 -0.773571 0.334143
v 1.064971 -0.545446 -0.102709
v 0.933262 -0.335302 0.284992
v -1.064971 -0.303455 -0.104852
v -0.933262 0.093378 0.270340
v -0.607672 0.278889 0.416923
v 0.607672 -0.018325 0.467880
v 0.000000 0.304725 0.349490
v -0.955410 0.232858 -0.102195
v -0.831954 0.402472 0.102747
v 0.000000 0.279927 -0.661656
v -0.607672 0.087333 -0.730261
v 0.607672 0.065755 -0.735498
v 0.955410 -0.006528 -0.088929
v 0.831954 0.214844 0.163555
v -0.516325 0.461040 0.093048
v 0.516325 0.393037 0.141227
v -0.770790 0.463179 -0.158312
v 0.000000 0.495571 -0.429938
v -0.516325 0.419922 -0.483483
v 0.516325 0.420933 -0.488994
v 0.770790 0.400652 -0.147190
v -0.831954 0.328002 -0.370362
v -0.494585 0.501088 -0.328173
v -0.933262 -0.079231 -0.529995
v -0.739381 -0.599515 -0.570601
v 0.739381 -0.657974 -0.570327
v 0.933262 -0.228756 -0.529085
v 0.831954 0.264516 -0.374482
v 0.494585 0.494271 -0.328905
v 0.000000 -0.695944 0.640180
v -0.625932 -0.270229 0.610919
v 0.000000 -0.430310 0.711685
v 0.000000 0.521321 -0.138815
v 0.000000 -0.417710 -1.041898
v 0.000000 -0.764401 0.340283
v 0.966230 -0.604441 0.315722
v -0.966231 -0.250466 0.312625
v 0.000000 0.132170 0.516415
v -0.893189 0.293683 0.198802
v 0.000000 0.070755 -0.826764
v 0.893189 -0.044447 0.241922
v 0.000000 0.425874 0.153876
v -0.735494 0.471769 -0.013089
v 0.000000 0.418319 -0.535697
v 0.735494 0.389293 0.026933
v -0.735494 0.440386 -0.336399
v -0.893189 0.152721 -0.450310
v -0.966230 -0.361627 -0.563166
v 0.000000 -0.697942 -0.573079
v 0.966231 -0.480680 -0.562071
v 0.893189 0.035099 -0.452145
v 0.735494 0.413121 -0.339329
v 0.000000 0.521321 -0.325430
vt 0.875229 0.437097
vt 0.999023 0.408542
vt 0.000977 0.247634
vt 0.847855 0.495820
vt 0.122630 0.188049
vt 0.142758 0.220479
vt 0.152323 0.281043
vt 0.010583 0.336935
vt 0.830178 0.571044
vt 0.793965 0.738657
vt 0.870601 0.785262
vt 0.127404 0.583982
vt 0.754184 0.740469
vt 0.187414 0.507194
vt 0.228683 0.511156
vt 0.468519 0.519427
vt 0.577547 0.584910
vt 0.430292 0.929764
vt 0.348298 0.730085
vt 0.201204 0.734374
vt 0.699453 0.260297
vt 0.339849 0.676405
vt 0.548948 0.310099
vt 0.555279 0.255641
vt 0.570878 0.215291
vt 0.688895 0.200164
vt 0.324713 0.636892
vt 0.504617 0.555167
vt 0.334587 0.424680
vt 0.038736 0.092769
vt 0.802333 0.411724
vt 0.389785 0.131755
vt 0.190548 0.161965
vt 0.236827 0.200976
vt 0.348328 0.210624
vt 0.343721 0.286035
vt 0.249297 0.259771
vt 0.747912 0.484926
vt 0.551389 0.660800
vt 0.735175 0.562041
vt 0.553198 0.756019
vt 0.030655 0.406138
vt 0.810336 0.618747
vt 0.167649 0.343394
vt 0.184681 0.402562
vt 0.056268 0.464316
vt 0.792117 0.657800
vt 0.728801 0.610319
vt 0.542252 0.822231
vt 0.722999 0.645361
vt 0.522856 0.865858
vt 0.385223 0.835293
vt 0.248042 0.876982
vt 0.672758 0.403487
vt 0.367188 0.784580
vt 0.515981 0.424170
vt 0.532424 0.369336
vt 0.255064 0.327739
vt 0.349589 0.366689
vt 0.371653 0.435927
vt 0.257353 0.392075
vt 0.085334 0.517201
vt 0.779347 0.699191
vt 0.199750 0.458830
vt 0.720308 0.683831
vt 0.491706 0.892999
vt 0.368222 0.908799
vt 0.287547 0.950133
vt 0.623309 0.512830
vt 0.389790 0.874869
vt 0.530326 0.498938
vt 0.511301 0.464907
vt 0.260154 0.447683
vt 0.408099 0.478060
vt 0.466736 0.837204
vt 0.454496 0.871343
vt 0.407841 0.911133
vt 0.454877 0.735359
vt 0.463954 0.790759
vt 0.403030 0.612203
vt 0.445822 0.671580
vt 0.642225 0.102106
vt 0.488771 0.188785
vt 0.450060 0.240921
vt 0.443567 0.298673
vt 0.436279 0.361967
vt 0.436233 0.419750
vt 0.449122 0.459767
vt 0.492140 0.501317
vt 0.591331 0.565273
vt 0.606197 0.542731
vt 0.302112 0.973695
vt 0.139330 0.601951
vt 0.843512 0.827595
vt 0.315459 0.994041
vt 0.899635 0.236284
vt 0.090209 0.000977
vt 0.567219 0.000977
vt 0.261680 0.515087
vt 0.211102 0.601640
vt 0.645791 0.468880
vt 0.270530 0.920693
vt 0.111428 0.559108
vt 0.896296 0.743356
vt 0.925943 0.692185
vt 0.693028 0.329579
vt 0.220652 0.810730
vt 0.953584 0.635856
vt 0.978937 0.568763
vt 0.009138 0.169286
vt 0.964009 0.329942
vt 0.197810 0.663025
vt 0.854969 0.809609
vt 0.998952 0.482852
vt 0.295147 0.470033
vt 0.249217 0.528796
vt 0.313472 0.414165
vt 0.687802 0.698331
vt 0.673775 0.657478
vt 0.733936 0.756703
vt 0.333447 0.340948
vt 0.341802 0.257261
vt 0.656099 0.610500
vt 0.643378 0.543010
vt 0.655532 0.448195
vt 0.716945 0.358889
vt 0.329669 0.177933
vt 0.277051 0.099075
vn -0.361290 -0.632328 0.685297
vn -0.125998 -0.739676 0.661062
vn -0.005973 -0.004268 0.999973
vn -0.386509 -0.020478 0.922058
vn 0.109914 -0.797412 0.593340
vn 0.384924 -0.092580 0.918293
vn 0.381659 0.246847 0.890732
vn 0.062890 0.302005 0.951230
vn -0.290927 0.324315 0.900101
vn -0.004591 0.960691 0.277582
vn 0.032307 0.951132 0.307089
vn 0.020903 0.994018 0.107201
vn -0.065285 0.993532 0.092909
vn 0.079220 0.938157 0.337025
vn 0.160630 0.970083 0.182034
vn 0.192245 0.980948 0.027990
vn 0.014266 0.999895 -0.002536
vn -0.108486 0.992915 -0.048493
vn -0.376963 0.341541 -0.860958
vn 0.007173 0.375890 -0.926637
vn -0.001444 -0.068668 -0.997638
vn -0.459295 -0.127712 -0.879055
vn 0.406582 0.338732 -0.848500
vn 0.446415 -0.116357 -0.887229
vn 0.189414 -0.833106 -0.519670
vn -0.023648 -0.848664 -0.528403
vn -0.250083 -0.832321 -0.494672
vn -0.412261 -0.911058 0.003872
vn -0.078396 -0.994864 -0.064037
vn -0.115527 -0.991507 0.059720
vn -0.444960 -0.864038 0.235478
vn 0.204175 -0.973204 -0.105767
vn 0.178541 -0.980817 0.078233
vn 0.837034 -0.345189 0.424522
vn 0.919444 -0.390342 -0.047490
vn 0.983175 0.181437 0.021174
vn 0.832177 0.190396 0.520799
vn -0.854104 -0.188111 0.484892
vn -0.955084 -0.295327 0.024417
vn -0.824832 0.235506 0.513994
vn -0.982512 0.184873 -0.022200
vn 0.101754 0.544088 0.832835
vn -0.167724 0.623970 0.763237
vn 0.357945 0.410131 0.838849
vn 0.273013 0.637481 0.720473
vn 0.086005 0.754824 0.650265
vn -0.062722 0.830772 0.553069
vn -0.737250 0.502620 0.451481
vn -0.940596 0.334442 -0.058547
vn -0.510905 0.792607 0.332791
vn -0.804165 0.587493 -0.090390
vn -0.245876 0.611410 -0.752146
vn 0.001433 0.618977 -0.785408
vn 0.007662 0.541035 -0.840965
vn -0.303159 0.517936 -0.799898
vn 0.303961 0.582163 -0.754118
vn 0.362554 0.487084 -0.794546
vn 0.808360 0.278431 0.518682
vn 0.970585 0.238806 0.030588
vn 0.917614 0.395043 0.043890
vn 0.710360 0.495539 0.499830
vn 0.054860 0.876104 0.478991
vn -0.026491 0.916005 0.400292
vn 0.169919 0.833214 0.526196
vn -0.260982 0.944727 0.198442
vn -0.445341 0.889495 -0.102323
vn -0.071590 0.890621 -0.449077
vn -0.000237 0.897847 -0.440309
vn -0.003208 0.705942 -0.708263
vn -0.177878 0.718941 -0.671925
vn 0.079079 0.900476 -0.427655
vn 0.212161 0.718709 -0.662151
vn 0.483497 0.793586 0.369393
vn 0.640452 0.766966 0.039800
vn -0.666071 0.561780 -0.490666
vn -0.428910 0.801742 -0.416229
vn -0.121502 0.970494 -0.208277
vn -0.839085 0.238243 -0.489057
vn -0.768965 0.398719 -0.499716
vn -0.348779 -0.921363 -0.171589
vn -0.873520 -0.288846 -0.391830
vn -0.049194 -0.988731 -0.141389
vn 0.217373 -0.946808 -0.237286
vn 0.839325 -0.315889 -0.442434
vn 0.867913 0.228701 -0.440934
vn 0.849231 0.323638 -0.417211
vn 0.796627 0.455761 -0.397073
vn 0.571914 0.752093 -0.327520
vn 0.174323 0.974029 -0.144495
vn 0.007734 0.992478 -0.122178
s 1
g pCube1
usemtl unwrapChekcerShaderSG
f 1/1/1 67/2/2 69/114/3 68/4/4
f 67/110/2 2/5/5 25/6/6 69/3/3
f 69/3/3 25/6/6 9/7/7 26/8/8
f 68/4/4 69/114/3 26/109/8 10/9/9
f 3/10/10 27/11/11 70/113/12 28/13/13
f 27/103/11 4/14/14 29/15/15 70/12/12
f 70/12/12 29/15/15 24/116/16 30/93/17
f 28/13/13 70/113/12 30/94/17 17/120/18
f 11/19/19 31/20/20 71/112/21 32/22/22
f 31/106/20 12/23/23 33/24/24 71/21/21
f 71/21/21 33/24/24 8/25/25 34/26/26
f 32/22/22 71/112/21 34/100/26 7/27/27
f 20/126/28 35/96/29 72/111/30 36/31/31
f 35/97/29 21/128/32 37/33/33 72/30/30
f 72/30/30 37/33/33 2/5/5 67/110/2
f 36/31/31 72/111/30 67/2/2 1/1/1
f 2/5/5 37/33/33 73/34/34 25/6/6
f 37/33/33 21/128/32 38/127/35 73/34/34
f 73/34/34 38/127/35 22/122/36 39/37/37
f 25/6/6 73/34/34 39/37/37 9/7/7
f 20/126/28 36/31/31 74/38/38 40/125/39
f 36/31/31 1/1/1 68/4/4 74/38/38
f 74/38/38 68/4/4 10/9/9 41/40/40
f 40/125/39 74/38/38 41/40/40 19/124/41
f 10/9/9 26/109/8 75/108/42 42/43/43
f 26/8/8 9/7/7 43/44/44 75/42/42
f 75/42/42 43/44/44 13/45/45 44/46/46
f 42/43/43 75/108/42 44/105/46 14/47/47
f 19/124/41 41/40/40 76/48/48 45/123/49
f 41/40/40 10/9/9 42/43/43 76/48/48
f 76/48/48 42/43/43 14/47/47 46/50/50
f 45/123/49 76/48/48 46/50/50 18/119/51
f 15/52/52 47/53/53 77/107/54 48/55/55
f 47/101/53 16/56/56 49/57/57 77/54/54
f 77/54/54 49/57/57 12/23/23 31/106/20
f 48/55/55 77/107/54 31/20/20 11/19/19
f 9/7/7 39/37/37 78/58/58 43/44/44
f 39/37/37 22/122/36 50/121/59 78/58/58
f 78/58/58 50/121/59 23/117/60 51/61/61
f 43/44/44 78/58/58 51/61/61 13/45/45
f 14/47/47 44/105/46 79/104/62 52/63/63
f 44/46/46 13/45/45 53/64/64 79/62/62
f 79/62/62 53/64/64 4/14/14 27/103/11
f 52/63/63 79/104/62 27/11/11 3/10/10
f 18/119/51 46/50/50 80/65/65 54/118/66
f 46/50/50 14/47/47 52/63/63 80/65/65
f 80/65/65 52/63/63 3/10/10 28/13/13
f 54/118/66 80/65/65 28/13/13 17/120/18
f 5/67/67 55/68/68 81/102/69 56/70/70
f 55/91/68 6/71/71 57/72/72 81/69/69
f 81/69/69 57/72/72 16/56/56 47/101/53
f 56/70/70 81/102/69 47/53/53 15/52/52
f 13/45/45 51/61/61 82/73/73 53/64/64
f 51/61/61 23/117/60 58/115/74 82/73/73
f 82/73/73 58/115/74 24/116/16 29/15/15
f 53/64/64 82/73/73 29/15/15 4/14/14
f 15/52/52 59/75/75 83/76/76 56/70/70
f 59/75/75 18/51/51 54/66/66 83/76/76
f 83/76/76 54/66/66 17/18/18 60/77/77
f 56/70/70 83/76/76 60/77/77 5/67/67
f 11/19/19 61/78/78 84/79/79 48/55/55
f 61/78/78 19/41/41 45/49/49 84/79/79
f 84/79/79 45/49/49 18/51/51 59/75/75
f 48/55/55 84/79/79 59/75/75 15/52/52
f 7/27/27 62/80/80 85/81/81 32/22/22
f 62/80/80 20/28/28 40/39/39 85/81/81
f 85/81/81 40/39/39 19/41/41 61/78/78
f 32/22/22 85/81/81 61/78/78 11/19/19
f 7/27/27 34/100/26 86/99/82 62/80/80
f 34/26/26 8/25/25 63/83/83 86/82/82
f 86/82/82 63/83/83 21/32/32 35/98/29
f 62/80/80 86/99/82 35/29/29 20/28/28
f 22/36/36 38/35/35 87/84/84 64/85/85
f 38/35/35 21/32/32 63/83/83 87/84/84
f 87/84/84 63/83/83 8/25/25 33/24/24
f 64/85/85 87/84/84 33/24/24 12/23/23
f 23/60/60 50/59/59 88/86/86 65/87/87
f 50/59/59 22/36/36 64/85/85 88/86/86
f 88/86/86 64/85/85 12/23/23 49/57/57
f 65/87/87 88/86/86 49/57/57 16/56/56
f 24/16/16 58/74/74 89/88/88 66/89/89
f 58/74/74 23/60/60 65/87/87 89/88/88
f 89/88/88 65/87/87 16/56/56 57/72/72
f 66/89/89 89/88/88 57/72/72 6/71/71
f 17/18/18 30/95/17 90/92/90 60/77/77
f 30/17/17 24/16/16 66/89/89 90/90/90
f 90/90/90 66/89/89 6/71/71 55/91/68
f 60/77/77 90/92/90 55/68/68 5/67/67
